<svg fill="none" height="220" viewBox="0 0 220 220" width="220" xmlns="http://www.w3.org/2000/svg" xmlns:xlink="http://www.w3.org/1999/xlink"><clipPath id="a"><path d="m.333008.666992h219.333v219.333h-219.333z"/></clipPath><g clip-path="url(#a)"><path d="m103.557 210.253c56.383 0 102.09-45.707 102.09-102.09 0-56.3822-45.707-102.08927-102.09-102.08927-56.3826 0-102.08971 45.70707-102.08971 102.08927 0 56.383 45.70711 102.09 102.08971 102.09z" fill="#e7e3e6"/><g fill="#d2d2d2"><path d="m103.558 213.444c-58.0508 0-105.28017-47.23-105.28017-105.28 0-58.0509 47.22937-105.28021 105.28017-105.28021 58.05 0 105.28 47.22931 105.28 105.28021 0 58.05-47.23 105.28-105.28 105.28zm0-204.17958c-54.5344 0-98.89954 44.36518-98.89954 98.89958 0 54.534 44.36514 98.899 98.89954 98.899 54.534 0 98.899-44.365 98.899-98.899 0-54.5344-44.365-98.89958-98.899-98.89958z"/><path d="m103.558 213.444c-34.1754 0-61.9784-47.23-61.9784-105.28 0-58.0509 27.803-105.28021 61.9784-105.28021 34.173 0 61.976 47.22931 61.976 105.28021 0 58.05-27.803 105.28-61.976 105.28zm0-204.17958c-30.6569 0-55.5978 44.36518-55.5978 98.89958 0 54.534 24.9409 98.899 55.5978 98.899 30.655 0 55.595-44.365 55.595-98.899 0-54.5344-24.94-98.89958-55.595-98.89958z"/><path d="m106.748 6.07422h-6.38v204.17978h6.38z"/><path d="m103.558 170.14c-58.0508 0-105.28017-27.803-105.28017-61.976 0-34.1755 47.22937-61.9785 105.28017-61.9785 58.05 0 105.28 27.803 105.28 61.9785 0 34.173-47.23 61.976-105.28 61.976zm0-117.5738c-54.5344 0-98.89954 24.9408-98.89954 55.5978 0 30.655 44.36514 55.595 98.89954 55.595 54.534 0 98.899-24.94 98.899-55.595 0-30.657-44.365-55.5978-98.899-55.5978z"/><path d="m205.648 104.974h-204.17974v6.38h204.17974z"/></g><path d="m52.4412 69.6055c8.4389 0 15.28-6.8411 15.28-15.2801 0-8.4389-6.8411-15.28-15.28-15.28-8.439 0-15.2801 6.8411-15.2801 15.28 0 8.439 6.8411 15.2801 15.2801 15.2801z" fill="#85bd57"/><path d="m154.805 74.1499c8.439 0 15.28-6.8411 15.28-15.28s-6.841-15.2801-15.28-15.2801-15.28 6.8412-15.28 15.2801 6.841 15.28 15.28 15.28z" fill="#ec6e62"/><path d="m52.4412 172.737c8.4389 0 15.28-6.841 15.28-15.28s-6.8411-15.28-15.28-15.28c-8.439 0-15.2801 6.841-15.2801 15.28s6.8411 15.28 15.2801 15.28z" fill="#ffc966"/><path d="m164.235 217.784c31.749 0 57.486-25.738 57.486-57.487s-25.737-57.486-57.486-57.486-57.487 25.737-57.487 57.486 25.738 57.487 57.487 57.487z" fill="#53b1e2"/><path d="m137.379 136.533h8.02v47.528h-8.02z" fill="#fff"/><path d="m190.581 140.679c3.305 2.767 4.965 7.027 4.965 12.786 0 5.754-1.689 9.971-5.068 12.645-3.379 2.675-8.559 4.01-15.538 4.01h-8.433v13.941h-8.02v-47.528h16.32c7.208 0 12.461 1.383 15.774 4.146zm-5.681 19.618c1.608-1.701 2.42-4.191 2.42-7.481 0-3.284-1.026-5.608-3.062-6.969-2.044-1.357-5.238-2.04-9.591-2.04h-8.16v19.039h9.318c4.442 0 7.467-.849 9.075-2.549z" fill="#fff"/></g></svg>