<svg height="132.69" viewBox="0 0 132.69 132.69" width="132.69" xmlns="http://www.w3.org/2000/svg"><g fill-rule="evenodd" transform="translate(-.27435 -.26062)"><path d="m121.13 85.381v-41.925c0-5.452-2.8875-10.496-7.5878-13.258-10.088-5.9269-27.91-16.398-38.825-22.812-5.7647-3.3854-12.925-3.3093-18.614.1989-9.6604 5.9568-24.732 15.25-34.461 21.251-5.8676 3.618-9.441 10.017-9.441 16.91v42.926c0 6.8374 3.6282 13.16 9.5301 16.611l35.912 20.992c4.7736 2.7915 10.669 2.8522 15.501.16118 10.487-5.8422 29.06-16.185 39.76-22.145 5.0754-2.8292 8.2201-8.1824 8.2201-13.992v-4.9177z" fill="#ff4088"/><path d="m65.626.27079h.09499l.0847.001029h.48491l.0847.003429h.01029l.0847.003429h.0093l.08573.003429h.0069l.08573.003429h.01029l.0823.003429h.01029l.0823.003429h.0069l.08573.003429h.01029l.08573.006859h.01029l.0823.006859h.0069l.0823.006859h.01029l.08573.006859h.0069l.0823.006859h.01029l.08573.006859h.01029l.08573.006859h.01029l.08573.006859h.01029l.0823.006859h.01029l.0823.006859h.01029l.08573.006859h.01029l.08573.010288h.01029l.08573.010288h.0069l.0823.010288h.01029l.0823.010288h.01029l.08573.010288h.01029l.08573.010288h.0069l.0823.010288h.01029l.08573.010288h.01029l.0823.013717.01029.003429.08573.013717h.01029l.0823.013717h.0069l.08573.013717h.01029l.0823.013717h.01029l.0823.013717h.0069l.08573.013717h.01029l.0823.013717.01029.003429.0823.013717.01029.003429.0823.017147h.01029l.0823.013717h.01029l.0823.017147h.01029l.08573.017147h.0069l.0823.017147h.01029l.0823.017147h.0069l.08573.017147.01029.003429.08573.017147h.0069l.08231.020576.01029.003429.0823.020576h.01029l.08573.020576.0069.003429.0823.017147.01029.003429.0823.017147.0069.003429.0823.020576h.01029l.0823.020576.01029.003429.0823.020576.0069.003429.08573.020576.0069.003429.0823.020576.01029.003429.0823.020576h.0069l.08231.024005h.01029l.08573.020576.01029.00343.0823.020576h.01029l.0823.024005.01029.00343.0823.024005.01029.00343.0823.024005.01029.00343.08231.024005.0069.00343.0823.024005.01029.00343.0823.024005.01029.00343.0823.024005.01029.00343.0823.027435.0069.00343.0823.027435h.01029l.0823.027435h.01029l.26748.089165.0069.00343.1749.0583.0069.00343.0823.027435.0069.00343.07888.027435.01029.00343.07888.027435.01029.00343.07888.030864.01029.00343.0823.030864.01029.00343.07887.030864.0069.00343.0823.027435.0069.00343.08231.030864.01029.00343.0823.030864.01029.00343.07887.030864.01029.00343.07887.034293.0069.00343.0823.030864.01029.00343.07887.034293.01029.00343.0823.034293.01029.00343.0823.034293.0069.00343.0823.034293.0069.00343.07888.034293.0069.00343.07887.034293.0069.00343.0823.034293.0069.00343.07887.034293.01029.00343.07887.034293.01029.00343.07887.034293.0069.00343.07887.037723.01029.00343.07887.037723.01029.00343.07887.037723.0069.00343.07888.037723.0069.00343.07887.037723.01029.00343.07887.037723.01029.00343.07887.037723.01029.00343.07887.037723.0069.00343.07887.041152.0069.00686.07887.037723.0069.00343.07545.041152.01029.00343.07887.037723.0069.00343.07887.041152.01029.00343.07545.041152.01029.00686.07887.041152.01029.00343.07887.041152.0069.00343.07545.041152.01029.00686.07887.041152.0069.00686.07545.044581.0069.00686.07545.044581.01029.00343.07545.044581.0069.00343.07545.044581.0069.00686.07545.044581.01029.00686.07202.044581h.0069l38.854 22.829.0652.03772.007.0069.0652.03772.0103.0034.0617.04115.007.0069.0617.03772.007.0069.0617.03772.007.0034.0617.03772.007.0034.0617.03772.007.0034.0617.03772.0103.0034.0617.04115.007.0034.0617.04115.0103.0034.0617.03772.007.0034.0617.04115.007.0069.0617.04115.007.0069.0583.03772.0103.0034.0617.04115.007.0034.0617.04115.007.0034.0583.04115.007.0034.0583.04115.007.0034.0583.04115.007.0069.0583.04115.007.0034.0583.04458.0103.0069.0583.04115.007.0034.0583.04115.007.0034.0583.04115.007.0069.0583.04115.007.0034.0583.04115.007.0069.0583.04115.007.0069.0583.04458.0103.0069.0549.04458.0103.0069.0583.04458.0103.0034.0583.04458.007.0069.0583.04458.007.0069.0549.04458.0103.0069.0583.04801.0103.01029.10974.08916.0137.01029.10974.09259.0137.01029.11317.09259.0137.01029.11317.09259.0137.01029.10974.09259.0137.01372.10974.09259.0137.01029.10631.09602.0137.01029.10631.09602.0137.01029.10631.09945.0137.01029.10288.09602.0137.01029.10631.09945.0137.01372.10288.09945.0137.01372.10288.09945.0137.01372.0995.09945.0137.01372.0994.10288.0137.01372.0995.10288.0103.01372.0995.10288.0137.01372.096.10288.0137.01372.096.10288.0137.01372.096.10288.0137.01372.096.10631.0137.01372.0926.10974.0103.01372.096.10631.0137.01372.0926.10974.0137.01372.0926.10974.0103.01372.0926.10974.0137.01372.0892.10974.0103.01372.0892.10974.0137.01372.0892.11317.0103.01372.0857.11317.0103.01372.0857.11317.0103.01372.0857.11317.0103.01715.0857.1166.0103.01372.0857.11317.0103.01715.0823.1166.0103.01372.0823.1166.0103.01372.0823.1166.0103.01715.0789.1166.0103.01715.0789.12003.0103.01715.0755.1166.0103.01372.0754.1166.0103.01372.0789.12003.0103.01372.0754.12003.0103.01715.072.12003.0103.01715.0755.12003.0103.01715.072.12003.0103.01715.072.12346.0103.01372.0686.12346.0103.01715.0686.12346.0103.01715.0686.12346.0103.01715.0686.12346.007.01715.0686.12689.007.01715.0652.12688.007.01715.0652.12688.0103.01372.0617.13031.007.01715.0652.12689.007.01715.0617.12689.0103.01715.0583.13032.007.01715.0583.13032.007.01715.0583.13032.007.01715.0583.13032.007.01715.0549.13032.007.01715.0549.13032.007.01715.0514.13374.007.01715.0514.13032.007.01715.0514.13374.007.01715.0514.13374.007.01715.0514.13374.007.01715.048.13374.007.01715.0446.13374.007.01715.0446.13374.007.01715.0446.13374.007.01715.0446.13717.003.01715.0412.13374.007.01715.0412.13717.003.01715.0411.13717.007.01715.0412.13717.007.01715.0377.13717.007.01715.0377.13717.003.01715.0343.13717.007.02058.0377.1406.003.01715.0343.1406.007.01715.0309.1406.007.01715.0343.1406.003.02058.0309.1406.003.01715.0309.1406.003.01715.0274.1406.003.01715.0274.1406.003.01715.0274.1406.003.01715.024.14403.003.01715.024.1406.003.02058.024.14403.003.02058.0206.14403.003.02058.0206.1406v.01372l.0103.07545v.0069l.007.07202v.01029l.0103.07202v.0069l.0103.07202v.01029l.0103.07202.003.01029.0103.07202v.01029l.007.07202.003.0069.007.07202.003.01029.007.07202v.01029l.007.07202.003.01029.007.07202.003.01029.007.07202v.01029l.007.07202v.01029l.007.07202v.01029l.007.07202v.01029l.007.07202v.01029l.003.07202v.01029l.003.07545v.01029l.007.07545v.0069l.003.07202v.01029l.003.07202v.01029l.003.07202v.01029l.003.07202v.01029l.003.07545v.01029l.003.07202v.01029l.003.07202v.0069l.003.07202v47.873l-.003.07887v.09945l-.003.07888v.01029l-.003.07544v.0069l-.003.07887v.01029l-.003.07545v.0069l-.003.07545v.01029l-.003.07545-.003.01029-.003.07545v.01029l-.003.07545v.0069l-.003.07887v.01029l-.007.07887v.0069l-.007.07887v.01029l-.007.07545v.01029l-.003.07545v.01029l-.007.07545v.01029l-.007.07545v.01029l-.007.07545v.01029l-.007.07545-.003.0069-.007.07887-.003.01029-.007.07545v.01029l-.007.07545-.003.01029-.0103.07545v.01029l-.0103.07545v.0069l-.0103.07545v.01029l-.0103.07545-.003.01029-.0103.07888-.003.01029-.0103.07545-.003.01029-.0103.07545v.01029l-.0103.07545v.01029l-.0103.07545-.003.01029-.0103.07545-.003.01029-.0137.07545v.0069l-.0103.07545v.0069l-.0137.07545-.003.01029-.0103.07545-.003.01029-.0103.07545v.0069l-.0137.07545v.0069l-.0137.07544v.0069l-.0137.07545v.01029l-.0137.07202-.003.01029-.0137.07202-.003.01029-.0137.07545-.003.01029-.0171.07545v.0069l-.0172.07545v.0069l-.0137.07202v.01029l-.0171.07545v.0069l-.0137.07545-.003.0069-.0172.07202v.0069l-.0171.07202v.01029l-.0171.07202-.003.01029-.0172.07202-.003.01029-.0171.07202-.003.0069-.0172.07202-.003.0069-.0172.07202-.003.01029-.0206.07202-.003.01029-.0171.07202-.003.01029-.0206.07202v.01029l-.0206.07545-.003.01029-.0206.07202v.01029l-.0206.07202-.003.01029-.0206.07202-.003.01029-.0206.07545-.003.0069-.0206.07202-.003.0069-.0206.07201-.003.01029-.024.07202-.003.01029-.0206.07202-.003.0069-.0206.07202-.003.01029-.0206.07202-.003.0069-.024.07202-.003.01029-.024.07202-.003.01029-.024.07202-.003.01029-.024.07201-.003.01029-.024.07202-.003.0069-.024.07202-.003.01029-.024.07202-.003.01029-.024.07202-.003.0069-.024.07202-.003.01029-.024.07202-.003.01029-.0274.06859-.003.01029-.024.06859-.003.01029-.024.06859-.003.01029-.024.07202-.003.01029-.0274.07202-.003.01029-.0274.06859-.003.01029-.0274.06859-.003.01029-.0274.06859-.003.01029-.0274.06859-.003.01029-.0274.06859-.003.01029-.0274.06859-.003.0069-.0309.06859-.003.01029-.0309.07202-.003.01029-.0274.06859-.003.01029-.0309.06859-.003.01029-.0309.06859-.003.01029-.0309.06859-.003.0069-.0309.06859-.003.01029-.0309.06859-.003.0069-.0309.06859-.003.0069-.0309.06859-.003.0069-.0309.06859-.003.0069-.0343.06859-.003.0069-.0343.06516-.003.01029-.0309.06859-.003.0069-.0343.06516-.003.01029-.0309.06859-.003.0069-.0343.06859-.003.01029-.0343.06859-.003.0069-.0343.06516-.003.0069-.0343.06859-.003.01029-.0343.06859-.003.01029-.0343.06859-.007.01029-.0343.06516-.003.0069-.0343.06859-.003.01029-.0343.06858-.003.0103-.0377.0652-.007.007-.0377.0651-.003.007-.0377.0652-.003.007-.0377.0652-.003.007-.0377.0652-.003.007-.0377.0652-.003.0103-.0377.0652-.003.007-.0377.0652-.003.0103-.0377.0652-.007.007-.0377.0652-.007.007-.0377.0652-.003.007-.0377.0652-.003.0103-.0411.0652-.003.007-.0377.0617-.003.0103-.0377.0617-.007.007-.0412.0652-.003.0103-.0412.0617-.007.007-.0412.0617-.003.007-.0412.0652-.007.0103-.0412.0617-.007.007-.0412.0617-.003.007-.0412.0652-.003.007-.0412.0617-.007.007-.0446.0617-.003.007-.0412.0617-.003.007-.0446.0617-.003.007-.0412.0617-.007.007-.0411.0617-.007.007-.0446.0617-.007.007-.0412.0617-.003.007-.0446.0617-.007.0103-.0412.0617-.007.007-.0446.0617-.007.007-.0446.0617-.007.007-.0446.0617-.007.007-.0446.0617-.003.007-.0446.0583-.007.007-.0446.0583-.003.007-.048.0583-.007.007-.0446.0583-.003.007-.0446.0617-.007.007-.048.0617-.007.007-.048.0583-.007.007-.048.0583-.003.007-.048.0583-.007.007-.048.0583-.007.007-.048.0583-.007.007-.048.0583-.007.007-.048.0583-.003.007-.048.0583-.007.007-.0514.0583-.007.007-.048.0583-.007.007-.048.0583-.007.007-.048.0583-.007.007-.048.0583-.007.007-.048.0549-.007.007-.0514.0583-.007.007-.048.0583-.007.007-.0514.0583-.007.007-.048.0583-.007.007-.0514.0549-.007.007-.0514.0549-.007.007-.0514.0549-.007.007-.0514.0549-.007.007-.0514.0549-.007.007-.0514.0549-.007.007-.0514.0549-.007.007-.0514.0549-.0689.0689-.0514.0549-.1203.1203-.0103.007-.0619.0619-.0549.0514-.0689.0689-.0549.0514-.007.007-.0549.0514-.007.007-.0549.0514-.007.007-.0549.0514-.007.007-.0549.0514-.007.007-.0549.0514-.007.007-.0583.0514-.007.003-.0549.0514-.007.007-.0583.0514-.007.007-.0583.0514-.007.003-.0583.0514-.007.007-.0583.048-.0103.007-.0583.048-.007.007-.0583.0514-.007.007-.0583.0514-.007.007-.0583.0514-.007.007-.0583.048-.007.007-.0617.048-.007.003-.0583.048-.007.007-.0583.048-.0103.007-.0583.048-.007.007-.0583.048-.007.007-.0583.048-.007.007-.0617.048-.007.007-.0583.0446-.007.007-.0617.048-.007.007-.0617.048-.007.007-.0617.048-.007.007-.0617.048-.007.003-.0617.0446-.007.003-.0617.0446-.007.003-.0617.0446-.0103.003-.0617.0446-.007.007-.0617.0446-.007.007-.0617.0446-.007.007-.0617.0446-.0103.007-.0617.0446-.007.003-.0651.0446-.0103.003-.0652.0446-.007.007-.0652.0446-.007.007-.0652.0412-.007.007-.0652.0446-.007.007-.0617.0446-.0103.007-.0652.0412-.007.003-.0652.0412-.0103.003-.0652.0411-.007.007-.0652.0412-.007.007-.0652.0412-.007.003-.0652.0412-.0103.003-.0652.0412-.007.007-.0652.0412-.0103.003-.0652.0412-.0103.007-.0652.0412-.0103.007-.0686.0412-.007.007-.0652.0377-.0103.003-.0652.0377-.007.007-.0686.0412-.0103.007-.0686.0377-.007.007-.0652.0377-.0103.003-.0686.0377-.0103.003-.0686.0377-.007.003-.0652.0377-.003.003-39.756 22.154h-.0034l-.06173.0377-.01029.003-.06516.0377-.01029.007-.06516.0343-.01029.003-.06516.0343-.0069.003-.06516.0343-.01029.003-.06516.0343-.01029.003-.06516.0343-.01029.003-.06516.0343-.0069.003-.06516.0343-.0069.003-.06516.0309-.0069.003-.06859.0343-.0069.007-.06516.0343-.0069.003-.06516.0309-.0069.003-.06516.0309-.0069.003-.06516.0343-.0069.003-.06859.0309-.0069.003-.06516.0309-.0069.003-.06859.0309-.0069.003-.06516.0309-.0069.003-.06516.0309-.01029.007-.06859.0309-.0069.003-.06859.0274-.0069.003-.06859.0309-.0069.007-.06859.0309-.01029.003-.06516.0274-.0069.003-.06859.0309-.0069.003-.06859.0274-.0069.003-.06859.0274-.0069.003-.06859.0274-.01029.003-.06859.0274-.01029.003-.06859.0274-.01029.003-.06516.0274-.0069.003-.06859.024-.0069.003-.06859.0274-.01029.003-.06859.0274-.01029.003-.06859.0274-.01029.003-.06859.024-.01029.003-.06859.0274-.01029.003-.06859.024-.0069.003-.06859.024-.01029.003-.06859.024-.01029.003-.06859.024-.01029.003-.06859.024-.0069.003-.13718.048-.01029.003-.07202.0206-.01029.003-.06859.0206-.0069.003-.06859.024-.0069.003-.07202.0206-.01029.003-.06859.0206-.01029.003-.06859.0206-.01029.003-.07202.024-.01372.003-.13717.0411-.01715.007-.1406.0411-.01715.003-.1406.0411-.01715.003-.1406.0377-.01715.007-.1406.0377-.01715.003-.1406.0377-.02058.003-.1406.0343-.01715.003-.1406.0343-.02058.003-.1406.0343-.01715.003-.1406.0309-.01715.003-.14403.0309-.02058.003-.14403.0309-.01715.003-.14403.0274-.01715.003-.1406.024-.01715.003-.1406.0274-.01715.003-.14403.024-.01715.003-.14403.024-.01715.003-.14403.0206-.01715.003-.14403.0206-.01715.003-.14403.0206-.01715.003-.14403.0206-.02058.003-.14403.0171-.01715.003-.14403.0172-.01715.003-.14403.0171-.14403.0137h-.01715l-.14403.0103-.01715.003-.14403.0103h-.01715l-.14403.0103h-.01715l-.14403.0103-.02058.003-.14403.0103h-.01715l-.14403.007h-.01715l-.14403.007h-.02058l-.14403.003h-.01715l-.14403.003h-.01715l-.14403.003h-.50754l-.28806-.006h-.02058l-.14403-.003h-.0031l-.14403-.007-.01715-.003-.14403-.007h-.01715l-.14403-.007-.01715-.003-.14403-.007h-.01715l-.14403-.0103-.01715-.003-.14403-.0137-.02058-.003-.14403-.0137-.02058-.003-.14403-.0137-.01715-.003-.14403-.0137h-.01715l-.14403-.0137-.01715-.003-.14403-.0171h-.02058l-.14403-.0171-.02058-.003-.14403-.0206-.01715-.003-.14403-.0206-.01715-.003-.14403-.0206-.01715-.003-.14403-.0206-.01715-.003-.1406-.024h-.01029l-.14403-.0274-.01852-.003-.1406-.0274-.01715-.003-.1406-.0274-.01715-.003-.1406-.0274-.02058-.003-.14266-.0274-.01715-.003-.1406-.0309-.02058-.007-.1406-.0309-.01715-.003-.1406-.0343-.0192-.007-.1406-.0343-.01715-.007-.1406-.0377-.01715-.003-.1406-.0377-.01715-.007-.1406-.0377-.01715-.007-.1406-.0377-.01715-.007-.1406-.0412-.02058-.007-.1406-.0411-.01715-.007-.1406-.0412-.01715-.007-.1406-.0412-.01715-.003-.13649-.0446-.01372-.003-.07202-.024h-.0093l-.06859-.0206-.01029-.003-.06859-.024-.01029-.003-.06859-.024-.01029-.003-.06859-.024-.01029-.003-.06859-.024-.01029-.003-.06859-.024-.0069-.003-.06859-.024-.0069-.003-.06859-.024-.0069-.003-.06859-.0274-.01029-.003-.06859-.0274-.01029-.003-.06859-.0274-.0069-.003-.06859-.0274-.01029-.003-.06859-.0274-.0069-.003-.06859-.0274-.01029-.003-.06859-.0274-.0069-.003-.06859-.0274-.0069-.003-.06859-.0274-.01029-.003-.06859-.0274-.01029-.003-.06859-.0274-.01029-.003-.06859-.0274-.01029-.003-.06859-.0274-.0069-.003-.06859-.0309-.01029-.003-.06516-.0309-.0069-.003-.06859-.0309-.0069-.003-.06859-.0309-.0069-.003-.06859-.0274-.01029-.003-.06516-.0309-.01029-.003-.06859-.0309-.01029-.003-.06516-.0309-.0069-.007-.06516-.0309-.0069-.003-.06516-.0309-.0069-.003-.06859-.0309-.0069-.007-.06859-.0343-.0069-.007-.06516-.0309-.01029-.003-.06859-.0309-.0069-.007-.06516-.0343-.01029-.003-.06859-.0343-.0069-.003-.06516-.0343-.01029-.003-.06516-.0343-.0069-.003-.06516-.0343-.01029-.007-.06516-.0343-.0069-.003-.06516-.0343-.0069-.003-.06516-.0343-.01029-.007-.06516-.0343-.0069-.003-.06516-.0377-.01029-.007-.06516-.0343-.01029-.003-.06516-.0343-.01029-.003-.06516-.0343-.01029-.003-.06516-.0377-.01029-.003-.06173-.0377-.01029-.003-.06173-.0377-.0034-.003-35.939-20.977-.0034-.003-.07544-.0446-.0069-.003-.07545-.0446-.01029-.003-.07888-.0446-.01029-.003-.07545-.048-.0069-.003-.07545-.048-.0069-.007-.07545-.048-.0069-.007-.07545-.048-.01029-.003-.07545-.0446-.01029-.007-.07545-.048-.0069-.007-.07545-.048h.01749l-.07545-.048-.01029-.007-.07545-.048-.0069-.007-.07545-.048-.0096-.007-.07545-.0514-.01029-.007-.07545-.0514-.0069-.007-.07545-.048-.0069-.007-.07545-.0514-.0069-.007-.07545-.0514-.0069-.007-.07202-.0514-.01029-.007-.07373-.0514-.0069-.007-.07202-.0514-.0086-.007-.07202-.0514-.0093-.007-.07202-.0514-.0069-.003-.07202-.0514-.0069-.007-.07099-.0514-.0069-.007-.07064-.0514-.01029-.003-.07202-.0514-.0069-.007-.07202-.0549-.0069-.007-.07202-.0514-.0089-.007-.07202-.0549-.0089-.007-.06859-.0549-.0069-.007-.06859-.0549-.0069-.003-.06859-.0549-.0069-.007-.06859-.0549-.0069-.007-.06859-.0549-.0069-.007-.06859-.0549-.0069-.007-.06859-.0549-.0069-.007-.06859-.0549-.0069-.007-.06859-.0583-.0069-.003-.06859-.0549-.0069-.007-.06653-.0549-.0069-.007-.06859-.0583-.0069-.007-.06859-.0549-.0069-.007-.06859-.0583-.0069-.003-.06722-.0549-.0069-.007-.06516-.0549-.0069-.007-.06516-.0583-.0069-.007-.06516-.0583-.0069-.007-.06516-.0583-.0069-.007-.06516-.0583-.0069-.007-.06516-.0583-.0069-.007-.06516-.0617-.0069-.003-.06516-.0583-.01029-.007-.06344-.0617-.0069-.007-.06516-.0583-.0069-.007-.06379-.0617-.0069-.007-.06173-.0617-.0069-.007-.06173-.0617-.0069-.007-.06516-.0617-.0069-.007-.06516-.0617-.0069-.003-.06173-.0617-.0069-.007-.06173-.0617-.0069-.007-.06173-.0617-.0069-.007-.06173-.0617-.0069-.007-.06173-.0617-.0069-.007-.06173-.0617-.0069-.007-.0583-.0617-.0069-.007-.06173-.0617-.0069-.007-.06173-.0652-.0069-.007-.0583-.0652-.0069-.007-.0583-.0652-.0069-.007-.06173-.0652-.0069-.007-.0583-.0652-.0069-.007-.0583-.0652-.0069-.007-.0583-.0652-.0069-.007-.0583-.0652-.0069-.007-.0583-.0652-.0034-.007-.05487-.0652-.0069-.007-.0583-.0652-.0069-.007-.06173-.0686-.0069-.007-.0583-.0652-.0069-.007-.0583-.0686-.0069-.007-.05487-.0652-.0034-.007-.05487-.0652-.0069-.007-.05487-.0686-.0069-.007-.0583-.0686-.0069-.007-.05487-.0652-.0069-.007-.0583-.0652-.0069-.007-.05487-.0652-.0069-.007-.05487-.0686-.0069-.007-.05487-.0686-.0069-.007-.05487-.0686-.0069-.007-.05487-.0686-.0069-.007-.05487-.0686-.0034-.007-.05144-.0686-.0069-.007-.05144-.0686-.0034-.007-.05144-.0686-.0069-.007-.05144-.072-.0069-.007-.05144-.0686-.0069-.007-.05144-.0686-.0034-.007-.05144-.072-.0034-.007-.05144-.072-.0034-.007-.05144-.0686-.0034-.007-.05144-.0686-.0069-.007-.05144-.072-.0069-.007-.05144-.072-.0069-.0103-.04801-.072-.0069-.007-.04801-.072-.0069-.007-.04801-.072-.0069-.007-.04801-.072-.0034-.007-.04801-.072-.0069-.0103-.04801-.072-.0069-.007-.04801-.072-.0069-.007-.04801-.072-.0069-.007-.04801-.072-.0069-.007-.04458-.072-.0034-.007-.04458-.072-.0069-.0103-.04801-.072-.0069-.0103-.04801-.072-.0034-.007-.04801-.0755-.0034-.0103-.04458-.072-.0069-.007-.04458-.072-.0069-.007-.04458-.0754-.0069-.0103-.04458-.072-.0034-.007-.04458-.0755-.0034-.007-.04458-.072-.0069-.0103-.04458-.0754-.0069-.0103-.04458-.0754-.0069-.0103-.04115-.0754-.0069-.007-.04458-.0755-.0034-.007-.04115-.0754-.0034-.007-.04115-.0754-.0034-.0103-.04115-.0754-.0069-.0103-.04115-.07544-.0034-.01029-.04115-.07887-.0034-.0069-.04115-.07545-.0034-.01029-.04115-.07545-.0034-.01029-.04115-.07545-.0034-.01029-.03772-.07887-.0034-.0069-.04115-.07887-.0034-.01029-.04115-.07887-.0069-.0069-.03772-.07888-.0034-.0069-.03772-.07545-.0034-.01029-.03772-.07887v.0034l-.037723-.07887-.00686-.01029-.037723-.07887-.00343-.01029-.037723-.07545-.00343-.01029-.037723-.07887-.00343-.0069-.037723-.07888-.00343-.0069-.034293-.07887-.00343-.0069-.037723-.07887-.00343-.0069-.037723-.07887-.00343-.0069-.037723-.07888-.00343-.01029-.034293-.07887-.00343-.0069-.037723-.07887-.00343-.01029-.037723-.07887-.00343-.0069-.034293-.07887-.00343-.0069-.034293-.07887-.00343-.01029-.034293-.07887-.00343-.0069-.030864-.07887-.00343-.0069-.034293-.07887-.00343-.01029-.030864-.0823-.00343-.0069-.034293-.07887-.00343-.01029-.030864-.07545-.00343-.01029-.034293-.0823-.00343-.0069-.030864-.0823-.00343-.01029-.030864-.0823-.00343-.0069-.030864-.08231-.00343-.01029-.030864-.08231-.00343-.0069-.030864-.0823-.00343-.0069-.027435-.0823-.00343-.01029-.030864-.0823-.00343-.0069-.027435-.0823-.00343-.01029-.027435-.0823-.00343-.01029-.030864-.0823-.00343-.01029-.027435-.0823-.00343-.0069-.027435-.0823-.00343-.0069-.027435-.0823-.00343-.01029-.027435-.0823-.00343-.01029-.027435-.0823-.00343-.01029-.027435-.0823-.00343-.01029-.027435-.0823-.00309-.0099-.024005-.0823-.00343-.0069-.027435-.08573-.00343-.01029-.024005-.08573-.00343-.01029-.024005-.0823-.00343-.01029-.024005-.0823-.00343-.01029-.024005-.08573-.00343-.01029-.024005-.08573-.00343-.0069-.024005-.08573-.00343-.0034-.024005-.08573-.00343-.0069-.020576-.0823-.00343-.0069-.020576-.0823v-.0069l-.024005-.08573v-.01029l-.020576-.08231-.00343-.01029-.020576-.0823-.00343-.01029-.020576-.08573h.00343l-.020576-.08573-.00343-.0069-.020576-.08573-.00343-.0069-.020576-.08573-.00343-.0069-.020576-.08573.00343-.0034-.020576-.08573-.00343-.01029-.020576-.08573-.00343-.01029-.017147-.08573-.00343-.01029-.020576-.08573-.00343-.0069-.017147-.08573-.00343-.01029-.017147-.08573-.00343-.01029-.034294-.17146v-.01029l-.017147-.08916v-.01029l-.017147-.08573-.00343-.01029-.020576-.08231v-.01029l-.017147-.09259-.00343-.01029-.017147-.08916-.00343-.01029-.013717-.08573-.00343-.01029-.013717-.08573v-.01029l-.013717-.08573v-.01029l-.013717-.08573-.00343-.01029-.013717-.08573v.0034l-.013717-.08573v-.0069l-.013717-.08573v-.01029l-.013717-.08573v-.01029l-.013717-.08573v-.0069l-.010288-.08916v-.01029l-.010288-.08573v-.0069l-.013717-.08916-.00343-.01029-.010288-.08573v-.01029l-.010288-.08916-.00343-.01029-.010288-.08916v-.01029l-.010288-.08916-.00343-.01029-.010288-.08916v-.01029l-.010288-.08916-.00343-.0069-.010288-.08916-.00686-.08916v-.01029l-.010288-.08916-.00343-.01029-.010288-.08916v-.01029l-.00686-.08916-.00343-.01029-.00686-.08916v-.01029l-.00686-.08916v-.01029l-.01372-.17832v-.01029l-.00686-.08916v-.01029l-.00686-.08916v-.11077l-.00343-.08916v-.01029l-.00343-.08916v-.01029l-.00343-.08916-.00343-.01029-.00343-.08916v-.09602l-.00343-.08916v-.01029l-.00343-.08916v-43.411l.00343-.08573v-.10974l.00343-.08916v-.3155l.00343-.08916v-.0069l.00343-.08916v-.01029l.00343-.08916v-.01029l.00343-.08916v-.0069l.00343-.08916v-.01029l.00343-.08916v-.01029l.00686-.09259v-.01029l.00686-.08916v-.0069l.00343-.08916v-.01029l.00686-.08916v-.01029l.00343-.08916v-.01029l.00343-.08916v-.01029l.00686-.08916v-.01029l.00686-.08916v-.01029l.010288-.08916v-.01029l.00686-.08916.00343-.0069.00686-.08916v-.0069l.010288-.08916v-.0069l.010288-.08916.00343-.01029.010288-.08916v-.01029l.010288-.08916v-.0069l.010288-.08916v-.0069l.010288-.08916.00343-.01029.010288-.08916v-.01029l.010288-.08573v-.01029l.010288-.08916v-.01029l.010288-.08916.00343-.01029.010288-.08573v-.01029l.013717-.08916v-.01029l.010288-.08916.00343-.01029.010288-.08573.00343-.01029.013717-.08916.00343-.0069.013717-.08916v-.0069l.013717-.08916v-.0069l.013717-.08573.00343-.01029.013717-.08573v-.01029l.024005-.08916.00343-.01029.013717-.08573v-.01029l.017147-.08573v-.0069l.017147-.08573v-.0069l.017147-.08916.00343-.0069.017147-.08573.00343-.0069.017147-.08573.00343-.01029.017147-.08573.00343-.01029.017147-.08573v-.01029l.017147-.08573v-.0069l.017147-.08573.00343-.0069.017147-.08573.00343-.0069.020576-.08573v-.01029l.020576-.08573.00343-.01029.017147-.08573.00343-.01029.020576-.08573v-.01029l.020576-.08573.00343-.01029.020576-.08573v-.01029l.020576-.08573.00343-.0069.020576-.08573v-.0069l.020576-.08573.00343-.01029.024005-.08573v-.0069l.024005-.08573v-.0069l.024005-.08573.00343-.01029.024005-.08573v-.01029l.024005-.08573.00343-.01029.024005-.0823.00343-.0069.024005-.08573.00343-.0086.024005-.08573.00343-.01029.024005-.08368.00343-.0069.027435-.08573.00343-.0069.024005-.0823.00343-.0069.024005-.08333.00343-.0069.024005-.08505.00343-.01029.027435-.08368.00343-.01029.027435-.0823v-.0069l.027435-.0823v-.01029l.027435-.0823.00343-.0069.027435-.0823.00343-.01029.027435-.0823.00343-.01029.027435-.0823.00343-.01029.027435-.0823.00343-.0069.030864-.0823.00343-.0069.027435-.0823.00343-.0086.027435-.0823.00343-.0069.030864-.0823.00343-.0069.030864-.0823v-.0069l.030864-.0823.00343-.0069.030864-.0823.00343-.01029.030864-.0823.00343-.0069.030864-.0823.00343-.01029.034293-.07887.00343-.0069.034293-.0823.00343-.0069.034293-.0823.00343-.01029.034293-.08231.00343-.01029.034293-.0823.00343-.01029.034293-.0823.00343-.01029.034293-.0823.00343-.01029.034293-.0823.00343-.0086.034293-.07888.00343-.01029.034293-.07888.00343-.01029.034293-.0823.00343-.0069.037723-.0823.00343-.0069.037723-.07888.00343-.0069.034293-.07887.00343-.01029.037723-.07887.00343-.0069.037723-.07888.00343-.0069.037723-.07887.00343-.0069.037723-.07887.00343-.01029.037723-.07888.00343-.0069.037723-.07887.00343-.01029.037723-.07887.0034-.0069.03772-.07888.0034-.0069.03772-.07887.0034-.0069.03772-.07888.0034-.0069.04115-.07545.0034-.0069.04115-.07887.0069-.01029.04115-.07887.0034-.0069.04115-.07887.0034-.01029.04115-.07545.0034-.0069.04115-.07545.0034-.0069.04115-.07545.0034-.01029.04115-.07544.0069-.0069.04115-.07544.0034-.01029.04115-.07545.0069-.0069.04115-.07545.0034-.0069.04115-.07545.0069-.01029.04458-.07545.0034-.0069.04115-.07545.0034-.0069.04458-.07545.0034-.0069.04458-.07545.0034-.0069.04458-.07545.0069-.0069.04458-.07545.0034-.0069.04458-.07545.0069-.0069.04458-.07545.0034-.0069.04458-.07545.0069-.0069.04458-.07545.0034-.0069.04801-.07545.0069-.01029.04801-.07545.0034-.0069.04458-.07202.0069-.0069.04801-.07202.0069-.0069.04458-.07545.0034-.0069.04801-.07202.0034-.0069.04801-.07202.0069-.0069.04801-.07545.0069-.0069.04801-.07202.0034-.01029.04801-.07202.0034-.0069.04801-.07202.0034-.0069.05144-.07202.0069-.0069.04801-.07202.0069-.0069.05144-.07202.0034-.0069.05144-.07202.0034-.0069.05144-.07202.0034-.0069.05144-.07202.0069-.0069.05144-.07202.0034-.0069.05144-.07202.0069-.0069.05144-.06859.0034-.0069.05144-.07202.0069-.0069.05144-.06859.0069-.0069.05144-.06859.0069-.0069.05144-.06859.0069-.0069.05144-.06859.0034-.0069.05144-.06859.0069-.0069.05487-.06859.0069-.0069.05487-.06859.0069-.0069.05487-.06859.0069-.0069.05487-.06859.0069-.0069.05487-.06859.0069-.01029.05487-.06859.0034-.0069.05487-.06859.0069-.0069.05487-.06859.0069-.0069.05487-.06516.0069-.0069.05487-.06859.0069-.0069.05487-.06859.0069-.0069.0583-.06516.0069-.0069.05487-.06859.0069-.0069.05487-.06516.0069-.0069.05487-.06859.0069-.0069.0583-.06859.0034-.0069.0583-.06516.0069-.0069.0583-.06516.0069-.0069.0583-.06516.0069-.0069.0583-.06516.0034-.0069.0583-.06516.0069-.0069.0583-.06516.0069-.0069.0583-.06516.0034-.0069.0583-.06516.0069-.0069.06173-.06516.0034-.0069.06173-.06516.0069-.0069.06516-.06173.0069-.0069.06173-.06516.0069-.0069.06173-.06516.21279-.21279.06516-.06173.48731-.48731.06516-.0583.0069-.0069.06516-.0583.0069-.0069.06516-.06173.0069-.0069.06516-.06173.0069-.0034.06516-.0583.0069-.0034.06516-.0583.0069-.0069.06516-.0583.0069-.0069.06516-.0583.0069-.0069.06516-.0583.0069-.0034.06859-.0583.0069-.0069.06859-.0583.0069-.0069.06859-.0583.0069-.0069.06859-.05487.0069-.0069.06859-.05487.0069-.0069.06516-.05487.0069-.0069.06859-.05487.0069-.0069.06859-.05487.0069-.0034.06859-.05487.0069-.0069.06859-.05487.0069-.0069.06859-.05487.0069-.0069.07202-.05487.0069-.0069.06859-.05487.0069-.0069.07202-.05487.0069-.0069.07202-.05487.0069-.0069.06859-.05487.0069-.0034.07202-.05487.0069-.0069.06859-.05487.0069-.0069.07202-.05144.0069-.0069.07202-.05487.0069-.0069.07202-.05144.0069-.0034.07202-.05144.01029-.0069.07202-.05144.0069-.0034.07202-.05144.0069-.0069.07202-.05487.0069-.0034.07545-.05144.0069-.0069.07202-.05144.01029-.0034.07202-.05144.0069-.0034.07202-.05144.0069-.0034.07544-.05144.0069-.0069.07202-.05144.0069-.0034.07545-.04801.0069-.0034.07202-.05144.01029-.0069.07544-.04801.0069-.0069.07545-.05144.0069-.0069.07545-.04801.01029-.0034.07544-.04801.0069-.0069.07545-.04801.0069-.0034.07545-.04801.0069-.0034.07544-.04801.0069-.0034.07545-.04801.01029-.0034.07545-.04458h.0034l34.468-21.262.0034-.00343.07202-.044581.0069-.00343.07545-.048011.01029-.00686.07544-.044581.01029-.00686.07545-.044581.01029-.00686.07544-.044581.01029-.00343.07888-.044581.0069-.00686.07544-.044581.01029-.00343.07545-.044581.0069-.00343.07887-.041152.0069-.00686.07888-.041152.0069-.00686.07545-.041152.01029-.00343.07888-.041152.0069-.00686.07545-.041152.01029-.00686.07545-.041152.01029-.00686.07545-.041152.0069-.00686.07887-.041152.0069-.00343.07545-.041152.01029-.00343.07545-.041152.01029-.00343.07888-.041152.01029-.00343.07887-.041152.0069-.00343.07887-.037723.01029-.00343.07887-.037723.01029-.00343.07545-.037723.01029-.00343.07888-.037723.0069-.00343.07887-.037723.01029-.00343.07887-.037723.01029-.00686.07887-.037723.01029-.00343.07887-.037723.01029-.00343.07887-.034293.01029-.00343.07887-.034293.0069-.00686.07887-.034293.0069-.00343.07887-.034293.01029-.00686.07887-.034293.01029-.00343.07887-.034293.01029-.00343.07887-.034293.01029-.00343.07887-.034293.01029-.00343.07888-.034293.01029-.00343.07887-.030864.01029-.00343.07887-.034293.01029-.00343.0823-.034293.01029-.00343.0823-.034293.01029-.00686.07888-.030864.0069-.00343.0823-.030864.01029-.00343.07888-.030864.0069-.00343.0823-.030864.09259-.030865.01029-.00343.0823-.030864.01029-.00343.0823-.030864.09259-.030865.09259-.030865.01029-.00343.07888-.027435.09259-.030865.01029-.00343.07887-.027435.09259-.030865.0069-.00343.0823-.027435.09259-.030865.09259-.030865.01029-.00343.0823-.024005.0069-.00343.0823-.024005.01029-.00343.0823-.024005h.01029l.0823-.024005.01029-.00343.0823-.024005.0069-.00343.0823-.024005.0069-.00343.0823-.024005.01029-.00343.0823-.024005.01029-.00343.0823-.024005.01029-.00343.0823-.020576.01029-.00343.0823-.020576.0069-.00343.0823-.024005.0082-.00343.08573-.020576h.0069l.0823-.024005h.01029l.0847-.020576.01029-.003429.08573-.020576.01029-.003429.0823-.020576h.01029l.08573-.020576h.01029l.08231-.020576.01029-.003429.0823-.017147.01029-.003429.0823-.020576.01029-.003429.0823-.017147h.01029l.0823-.017147.01029-.003429.0823-.017147h.0069l.0823-.017147.01029-.003429.08573-.017147h.0069l.08573-.017147.0069-.003429.08573-.017147.01029-.003429.08573-.017147.01029-.003429.08573-.013717h.01029l.0823-.013717.01029-.003429.08573-.017147.01029-.003429.08573-.013717h.01029l.0823-.013717.01029-.003429.08573-.013717.01029-.003429.0823-.013717h.0069l.0823-.013717h.01029l.08573-.013717.01029-.003429.08573-.013717h.01029l.08573-.013717h.01029l.08573-.013717h.01029l.08573-.010288h.01029l.0823-.010288h.01029l.08573-.010288.01029-.003429.08573-.010288.0069-.003429.08573-.006859h.01029l.0823-.010288h.01029l.0823-.010288h.01029l.08573-.010288h.01029l.08573-.010288h.01029l.0823-.006859h.01029l.08573-.010288.01029-.003429.08573-.006859.01029-.003429.08573-.006859h.01029l.08436-.006859h.01029l.08573-.006859h.01029l.08573-.003429.01029-.003429.08573-.006859.0069-.003429.08573-.003429h.01029l.08573-.006859h.0069l.08573-.003429h.01029l.08573-.003429h.01029l.08573-.003429h.01029l.08573-.003429.01029-.003429.08573-.003429h.01029l.08573-.003429h.01029l.08573-.003429h.01029l.08573-.003429h.01029l.08573-.003429h.0069l.08573-.003429h.10631l.08573-.003429h.1989zm-.07887 9.2592h-.05624l-.05624.0006859h-.0559l-.1166.00274-.0583.00171-.1749.01029-.05487.00343-.0583.00343-.16461.01029-.0583.00343-.05487.00343-.1166.01372-.05487.00686-.1749.02058-.05487.00686-.0583.00686-.10974.01372-.0583.00686-.21948.02744-.0583.00686-.05487.010288-.05487.00686-.0583.010288-.32922.061728-.05487.00686-.0583.010288-.05487.010288-.0583.010288-.16461.030864-.16461.041151-.10974.020576-.38409.096019-.05487.013716-.10974.02744-.05487.01715-.05487.01372-.05487.01715-.05144.01715-.27435.08575-.05144.01715-.05487.01715-.05487.02058-.10974.0343-.05487.02058-.10974.0343-.05144.01715-.16461.06174-.05144.02058-.05487.02058-.10288.04116-.05487.024-.16461.06174-.05144.02401-.05144.02058-.05487.024-.15432.07203-.05487.02401-.05144.024-.05487.02401-.05144.02401-.05144.024-.05144.02401-.05487.02401-.05144.02401-.05144.024-.10288.05488-.05144.024-.05144.02744-.05144.024-.10288.05488-.05144.02743-.10288.05488-.05144.03086-.04801.02743-.05144.02744-.04801.02744-.15432.09258-.04801.02743-.05144.03086-.04801.03086-.10288.06172-.05487.03429-34.431 21.221-.0583.03772-.05487.03429-.5144.3429-.05144.03772-.09602.06858-.05144.03429-.28806.20574-.04801.03772-.04801.03429-.28806.22632-.04458.03772-.09602.07544-.04458.03772-.09602.07544-.04458.03772-.04801.03772-.08916.07544-.08916.0823-.08916.07544-.49038.45265-.04115.04115-.04458.04115-.04115.04458-.04458.04115-.04115.04458-.04115.04115-.04115.04458-.04115.04115-.0823.08916-.08573.08573-.12345.13374-.03772.04458-.12345.13374-.04115.04801-.04115.04458-.07544.08916-.04115.04801-.03772.04458-.04115.04458-.03772.04801-.03772.04458-.22632.28806-.03429.04801-.15088.19204-.10287.14403-.03429.05144-.06858.09602-.03429.05144-.13716.19204-.03086.05144-.03429.05144-.03429.04801-.03429.05144-.03086.05144-.03086.04801-.12344.20576-.06858.10288-.3086.5144-.03086.05487-.06172.10288-.03086.05487-.02744.05144-.08229.16461-.02744.05144-.02743.05144-.02744.05487-.02744.05144-.02743.05487-.02401.05144-.02744.05487-.02743.05487-.02744.05487-.05486.10974-.02401.05487-.024.05487-.04802.10974-.024.05487-.09604.21948-.02058.05487-.024.05487-.02401.0583-.02401.05487-.024.05487-.02401.05487-.02058.05487-.02401.0583-.02401.05487-.02058.05487-.02058.0583-.02058.05487-.02058.0583-.02058.05487-.06174.1749-.01715.0583-.02058.05487-.02058.0583-.01715.0583-.01715.05487-.01715.0583-.02058.0583-.0343.10974-.01715.0583-.02058.0583-.01715.0583-.01715.05487-.08575.2915-.02744.1166-.01715.0583-.01372.0583-.01715.0583-.02744.1166-.01372.06173-.08232.3498-.01029.0583-.01372.0583-.01029.0583-.04116.24692-.02058.1166-.02058.12346-.03087.1749-.01029.06173-.0138.12346-.0069.0583-.01029.06173-.01029.0583-.0414.37038-.0069.0583-.0138.12346-.0034.06173-.0138.12346-.034.6173v.06173l-.0068.12346v.06173l-.0034.06173v43.484l.0034.06173v.18518l.0034.0583.0272.49384.0069.06173.0102.18519.0069.0583.0069.06173.0069.0583.0034.06173.0276.2332.0069.06173.0138.1166.0138.12346.0069.0583.0069.06173.04116.2332.01029.06173.04116.2332.01372.0583.03087.1749.02744.1166.01029.0583.09604.4081.01372.05487.01715.05487.04116.1749.01715.0583.01372.05487.01372.0583.01372.05487.01715.0583.01372.05487.0343.1166.01715.05487.0343.1166.01715.05487.01715.0583.08232.21948.01715.05487.02058.0583.18522.49383.04802.10974.1029.27435.024.05487.04802.10974.024.05487.09604.21948.024.05487.04802.10974.02401.05144.02743.05487.02743.05144.02744.05487.02744.05144.02743.05144.05488.10288.05486.10288.03086.05144.02744.05144.05486.10288.06172.10288.05488.10288.02743.05144.03087.05144.02743.05144.03086.04801.03086.05144.03086.04801.06172.10288.12344.19204.03086.05144.03087.05144.03429.04801.03086.04801.03086.05144.06172.09602.06858.09602.03429.05144.24003.33607.07544.09602.13716.19204.07544.08916.03772.04801.03772.04458.03772.04801.41492.49038.0823.08916.03772.04458.04115.04115.04115.04458.04115.04115.04115.04458.03772.04458.04115.04458.1646.1646.04115.04458.20575.20575.04458.04115.0823.0823.04458.04115.0823.0823.04458.04115.08916.07544.08916.0823.08916.07544.08916.0823.04458.03772.14403.11316.08916.0754.04801.0377.04458.0377.04801.0343.04458.0377.14403.1131.04458.0343.04801.0377.04801.0343.09602.0754.09602.0686.05144.0343.28806.2058.05144.0343.05144.0309.05144.0343.04801.0343.10288.0686.04801.0309.2572.1545.05487.0309.10288.0618.0583.0343 35.898 20.988.04458.0274.03772.0206.12345.0618.03772.024.12345.0618.04115.024.3292.1648.03772.0206.0823.0412.04115.0172.04115.0206.0823.0344.04115.0171.0823.0412.04115.0171.04115.0206.04115.0171.0823.0344.0823.0342.04115.0172.0823.0342.04115.0172.04115.0137.04458.0171.04115.0172.04115.0171.0823.0344.04115.0137.04115.0171.0823.0274.04458.0137.04115.0137.03772.0137.08916.0274.08573.0274.60011.168.25719.0618.08573.0172.08573.0206.08573.0171.17146.0344.08573.0137.08573.0172.17146.0274.08916.0137.08573.0137.26748.0309.08916.007.08573.007.08916.007.08573.007.17832.014.08573.007.17146.006.08916.003h.43896l.08916-.003h.08916l.17832-.006.17832-.014.08916-.003.26748-.021.08573-.007.17832-.0206.08573-.0103.08916-.0103.08573-.0137.08916-.0137.08573-.0137.08916-.0137.08573-.0137.08573-.0172.08573-.0137.08916-.0172.08573-.0171.08573-.0206.08573-.0171.34292-.0824.34292-.096.08916-.0274.12345-.0411.04458-.0137.04115-.0137.04458-.0137.0823-.0274.04458-.0137.0823-.0274.04458-.0171.04115-.0137.04458-.0137.04115-.0171.12345-.0411.04458-.0171.04115-.0137.04115-.0172.04115-.0171.0823-.0344.04115-.0171.0823-.0344.04115-.0171.0823-.0344.0823-.0412.04115-.0172.0823-.0412.04115-.0172.12345-.0618.03772-.0206.3292-.1648.03772-.0206.0823-.0412.04458-.024 39.77-22.164.048-.024.0446-.024.1236-.072.0412-.0274.0446-.024.1236-.072.0412-.0274.0411-.0274.0412-.024.0824-.04802.0824-.05486.0411-.02401.0412-.02743.0412-.02401.0754-.05486.0377-.02744.0754-.05486.0412-.02743.0377-.02743.0412-.02743.1885-.13715.0412-.02743.0377-.03086.0377-.02743.0377-.03086.0377-.02743.1131-.09258.0754-.05486.0377-.03086.0343-.03086.0754-.06172.0343-.02743.0377-.03086.0377-.03429.0343-.03086.0377-.03086.0686-.06172.0343-.03429.0377-.03086.0343-.03429.0343-.03086.0686-.06858.0343-.03086.0343-.03429.0343-.03086.1372-.13716.0309-.03429.0343-.03429.0309-.03429.1029-.10287.1236-.13716.0343-.03429.2163-.24003.0927-.11316.0927-.10287.0309-.03772.0309-.03429.0309-.03772.0274-.03429.0548-.07544.0274-.03429.0309-.03772.3288-.45264.024-.03772.024-.04115.0274-.04115.0274-.03772.048-.07544.0274-.04115.0274-.03772.024-.03772.096-.1646.024-.03772.048-.0823.024-.03772.072-.12345.0412-.0823.048-.0823.0206-.04115.048-.0823.0412-.0823.0206-.04458.0206-.04115.048-.0823.0618-.12345.0206-.04458.0412-.0823.0206-.04458.0412-.0823.0618-.13374.0206-.04115.0172-.04115.0171-.04458.0172-.04458.0171-.04458.0171-.04115.0172-.04458.0171-.04458.0172-.04458.0171-.04115.0171-.04458.0172-.04458.0342-.08916.0172-.04458.0548-.17832.0171-.04458.0344-.08916.0171-.04458.0137-.04458.0172-.04458.0274-.08916.0172-.04458.0548-.17832.0103-.04458.0548-.17832.0103-.04458.0103-.04801.0137-.04458.0103-.04458.0103-.04801.0137-.04458.0309-.13374.0103-.04801.0206-.08916.007-.04801.0103-.04801.0103-.04458.007-.04801.0103-.04458.0206-.09602.0103-.04458.0103-.04801.007-.04801.0103-.04801.007-.04458.0103-.04458.049-.33607.003-.04801.007-.04458.003-.04801.007-.04801.007-.04458.007-.04801.012-.19204.007-.04801.033-.52811v-.09602l.003-.04801v-47.474l-.003-.04218-.003-.04458v-.04458l-.003-.04458v-.04458l-.003-.04458v-.04458l-.003-.04458-.003-.04115-.009-.13374-.003-.04115-.003-.04458-.003-.04115-.003-.04458-.007-.04458-.006-.0823-.007-.04115-.003-.04115-.007-.04458-.003-.04115-.007-.04115-.007-.04458-.003-.04458-.003-.04115-.007-.03772-.0137-.09019-.0103-.08745-.0137-.08916-.0137-.08573-.0172-.08573-.0171-.08573-.0137-.08573-.0172-.08573-.1442-.60011-.072-.25719-.0274-.08573-.024-.0823-.1096-.3292-.0618-.1646-.0309-.07887-.0927-.2469-.0343-.07887-.0309-.0823-.0343-.07888-.0343-.07887-.0343-.07888-.0377-.07887-.0343-.07887-.0377-.07888-.0377-.07887-.0377-.07545-.0412-.07888-.0377-.07887-.0412-.07887-.1648-.3018-.0411-.07545-.0446-.07545-.0446-.07544-.0446-.07545-.048-.07545-.0892-.14404-.288-.43212-.257-.34295-.2196-.27436-.0549-.06516-.0583-.06516-.0549-.06516-.2915-.3258-.3085-.30865-.0652-.06173-.0651-.06173-.1304-.1166-.0651-.0583-.1304-.1166-.0686-.0583-.1372-.10974-.0652-.05487-.072-.0583-.0309-.02401-.0686-.05486-.0343-.02744-.0343-.02743-.0343-.02401-.0686-.05486-.0377-.02744-.0377-.02743-.0343-.02743-.0343-.02744-.0343-.02743-.0343-.02401-.0343-.02743-.0377-.02743-.0686-.04802-.0377-.02743-.0754-.04802-.0343-.02401-.0377-.024-.1131-.07203-.0377-.024-.1508-.09604-.0754-.04116-.0446-.02401-38.806-22.767-.05487-.03361-.04973-.02743-.10288-.06172-.05041-.02846-.05144-.02744-.04972-.02743-.10288-.05488-.05144-.02743-.05041-.02744-.15432-.08229-.05144-.02744-.05144-.02743-.05144-.02744-.05247-.02401-.05144-.02743-.10288-.04802-.05144-.02744-.05315-.024-.10288-.04802-.0535-.024-.05144-.02401-.05144-.02058-.05316-.02401-.05212-.02401-.05144-.02401-.05315-.02058-.05144-.02058-.05487-.02058-.05281-.02401-.05418-.02058-.05487-.024-.05487-.02058-.1063-.04116-.05384-.02058-.10974-.04116-.05144-.02058-.10288-.0343-.05487-.02058-.05487-.01715-.05144-.01715-.10974-.0343-.05144-.01715-.16461-.05145-.05144-.01715-.16461-.05145-.05487-.01372-.05487-.01715-.05487-.013717-.05487-.017147-.16461-.041151-.05487-.017147-.10974-.027434-.05487-.010288-.16461-.041151-.05487-.010288-.05487-.013717-.10974-.020576-.05487-.013717-.32922-.061728-.0583-.010288-.21948-.02744-.10974-.020576-.05487-.00686-.0583-.010288-.05487-.00686-.05487-.010288-.27435-.0343-.0583-.00686-.05487-.00343-.10974-.01372-.27435-.01715-.1166-.00686-.10974-.00686h-.05487l-.10974-.00686h-.0583l-.10974-.00686-.05144-.00343-.05487-.00343h-.11317l-.05487-.00343h-.10974z" fill="#c9177e"/><path d="m71.735 101.85v-31.071h-24.663v31.071h-14.867v-71.061h14.867v25.884h24.663v-25.884h14.911v71.061z" fill="#fff" fill-rule="nonzero" transform="translate(7.2446 .010163)"/></g></svg>